# xmcd
#
# Track frame offsets:
#	150
#	16108
#	33008
#	53140
#	71707
#	95727
#	112077
#	129126
#	149132
#	166211
#	181884
#	201262
#
# Disc length: 2971 seconds
#
# Revision: 1
# Processed by: cddbd v1.5.2PL0 Copyright (c) Steve Scherf et al.
# Submitted via: audiograbber 1.83.01
#
DISCID=a60b990c
DTITLE=Beverly Knight - The Collection
DYEAR=2009
DGENRE=R&B
TTITLE0=Shoulda Woulda Coulda
TTITLE1=Come As You Are
TTITLE2=Rewind (Find A Way)
TTITLE3=After You
TTITLE4=Weekend Thing
TTITLE5=Same (As I Ever Was)
TTITLE6=The Queen Of Starting Over
TTITLE7=Shape Of You
TTITLE8=What If?
TTITLE9=No Man`s Land
TTITLE10=Special Kinda Cool
TTITLE11=Shoulda Woulda Coulda (feat. Know ?uestion)
EXTD=
EXTT0=
EXTT1=
EXTT2=
EXTT3=
EXTT4=
EXTT5=
EXTT6=
EXTT7=
EXTT8=
EXTT9=
EXTT10=
EXTT11=
PLAYORDER=
